PathFileType	4	(X/Y/Z)	/tmp/tmp8ooq684z//results/MarkerData/rotated_Sprint_05400001.trc
DataRate	CameraRate	NumFrames	NumMarkers	Units	OrigDataRate	OrigDataStartFrame	OrigNumFrames
200	200	9	46	m	200	0	724
Frame#	Time	C7			L.ASIS			L.PSIS			L_5meta			L_Shoulder			L_ankle			L_calc			L_elbow_lat			L_elbow_med			L_forearm			L_humerus			L_knee			L_sh2			L_sh3			L_shank_antsup			L_thigh1			L_thigh2			L_thigh3			L_thigh4			L_toe			L_wrist_radius			L_wrist_ulna			R_Shoulder			R_elbow_lat			R_elbow_med			R_forearm			R_humerus			R_wrist_radius			R_wrist_ulna			Sternum			r.ASIS			r.PSIS			r_5meta			r_ankle			r_calc			r_knee			r_sh2			r_sh3			r_sh4			r_shank_antsup			r_thigh1			r_thigh2			r_thigh3			r_thigh4			r_thigh5			r_toe		
		X1	Y1	Z1	X2	Y2	Z2	X3	Y3	Z3	X4	Y4	Z4	X5	Y5	Z5	X6	Y6	Z6	X7	Y7	Z7	X8	Y8	Z8	X9	Y9	Z9	X10	Y10	Z10	X11	Y11	Z11	X12	Y12	Z12	X13	Y13	Z13	X14	Y14	Z14	X15	Y15	Z15	X16	Y16	Z16	X17	Y17	Z17	X18	Y18	Z18	X19	Y19	Z19	X20	Y20	Z20	X21	Y21	Z21	X22	Y22	Z22	X23	Y23	Z23	X24	Y24	Z24	X25	Y25	Z25	X26	Y26	Z26	X27	Y27	Z27	X28	Y28	Z28	X29	Y29	Z29	X30	Y30	Z30	X31	Y31	Z31	X32	Y32	Z32	X33	Y33	Z33	X34	Y34	Z34	X35	Y35	Z35	X36	Y36	Z36	X37	Y37	Z37	X38	Y38	Z38	X39	Y39	Z39	X40	Y40	Z40	X41	Y41	Z41	X42	Y42	Z42	X43	Y43	Z43	X44	Y44	Z44	X45	Y45	Z45	X46	Y46	Z46

1	0	0.852131	1.52838	-0.304323	0.922869	0.974292	-0.451934	0.72801	1.0393	-0.356814	0.656255	0.279508	-0.470431	0.900465	1.5007	-0.497121	0.655303	0.441129	-0.439325	0.604571	0.480289	-0.38629	0.690704	1.25182	-0.62805	0.647827	1.21907	-0.547087	0.813779	1.13732	-0.594138	0.783725	1.29025	-0.590556	1.05933	0.544772	-0.47148	0.949221	0.563906	-0.482859	0.831902	0.529826	-0.469931	0.967628	0.47664	-0.471517	1.04675	0.773707	-0.46374	1.10457	0.647054	-0.450146	0.950966	0.730539	-0.519215	1.00956	0.606205	-0.484592	0.680217	0.248186	-0.401962	0.89967	1.10608	-0.519376	0.86988	1.05397	-0.562417	0.898736	1.49245	-0.11397	0.715723	1.20042	0.0021867	0.710235	1.16699	-0.0834314	0.889897	1.15868	-0.0210616	0.827754	1.27307	-0.0344243	0.993073	1.1312	-0.0502264	0.977239	1.08643	-0.0269902	1.00561	1.41243	-0.31115	0.940437	0.982505	-0.178515	0.733014	1.04605	-0.25344	0.678243	0.0338232	-0.198084	0.604182	0.132603	-0.238578	0.523157	0.127183	-0.306665	0.855432	0.487521	-0.173382	0.753002	0.272601	-0.19919	0.764019	0.404712	-0.155326	0.68833	0.322731	-0.185103	0.82342	0.367602	-0.180628	0.946594	0.70525	-0.135128	0.932988	0.593449	-0.162506	0.886672	0.56302	-0.149576	0.834001	0.707473	-0.117034	0.828787	0.59459	-0.15028	0.732022	0.0474542	-0.254763
2	0.005	0.851354	1.53158	-0.30426	0.922475	0.979816	-0.452957	0.728485	1.04242	-0.355432	0.682155	0.26429	-0.470126	0.895747	1.50494	-0.497778	0.670188	0.425133	-0.438291	0.6173	0.4605	-0.384574	0.683939	1.25718	-0.626495	0.642332	1.2245	-0.544884	0.807588	1.14333	-0.593904	0.777438	1.29557	-0.591156	1.06844	0.554931	-0.472083	0.956724	0.566951	-0.482043	0.841892	0.52556	-0.469544	0.980246	0.480827	-0.471421	1.04981	0.783396	-0.464368	1.11062	0.658442	-0.450107	0.955349	0.737591	-0.519627	1.01729	0.614738	-0.485022	0.709083	0.234604	-0.402516	0.894502	1.11222	-0.520414	0.863955	1.05985	-0.562544	0.900491	1.49592	-0.114845	0.721351	1.20326	0.0048201	0.714357	1.1698	-0.0810018	0.894938	1.16416	-0.0215875	0.832424	1.27666	-0.0339191	0.998197	1.13843	-0.0526746	0.9836	1.09357	-0.029412	1.00501	1.41613	-0.314018	0.942106	0.983745	-0.179497	0.73409	1.04862	-0.252052	0.651824	0.0348096	-0.197752	0.580865	0.137586	-0.237447	0.500365	0.135774	-0.305405	0.838158	0.489879	-0.173223	0.731183	0.276886	-0.197528	0.744668	0.408759	-0.154722	0.667524	0.328338	-0.184625	0.803351	0.370378	-0.17956	0.938901	0.703754	-0.136105	0.920518	0.592372	-0.163234	0.873439	0.563685	-0.14923	0.826598	0.710516	-0.116962	0.816447	0.597723	-0.150619	0.705513	0.0476111	-0.254677
3	0.01	0.850669	1.535	-0.304987	0.922429	0.985452	-0.453901	0.729173	1.04558	-0.354004	0.708981	0.249491	-0.469657	0.890896	1.50958	-0.49841	0.686391	0.408699	-0.436975	0.63075	0.440962	-0.383097	0.677346	1.26263	-0.62475	0.637003	1.22992	-0.542761	0.80142	1.14963	-0.593614	0.771279	1.30092	-0.590894	1.07671	0.564642	-0.472873	0.963343	0.569498	-0.481314	0.851487	0.52068	-0.469183	0.992237	0.484984	-0.471651	1.05263	0.793045	-0.465091	1.11673	0.669641	-0.450216	0.959578	0.744361	-0.520139	1.02424	0.623256	-0.485748	0.73888	0.22293	-0.401779	0.889359	1.11874	-0.521435	0.858142	1.06587	-0.562632	0.902	1.49958	-0.1156	0.726577	1.2064	0.00721816	0.718149	1.17314	-0.0787601	0.899811	1.16957	-0.0226284	0.836755	1.28052	-0.0335249	1.00296	1.14588	-0.05543	0.989413	1.10083	-0.0319981	1.00454	1.42018	-0.316833	0.943887	0.985181	-0.180108	0.735603	1.05141	-0.250463	0.625577	0.0360844	-0.197298	0.55827	0.143276	-0.236161	0.478666	0.144888	-0.303994	0.821299	0.493225	-0.17318	0.709906	0.282016	-0.195988	0.725749	0.414017	-0.154336	0.647353	0.334657	-0.183958	0.783812	0.374289	-0.178571	0.931227	0.702979	-0.137277	0.907902	0.592136	-0.16441	0.859826	0.5658	-0.150211	0.81949	0.714146	-0.116999	0.804329	0.601946	-0.150683	0.679339	0.0478051	-0.254579
4	0.015	0.849948	1.5387	-0.305276	0.9228	0.991227	-0.454688	0.730115	1.04884	-0.352552	0.736816	0.235195	-0.468975	0.885993	1.51433	-0.498916	0.703313	0.392164	-0.435662	0.645157	0.42133	-0.381629	0.670878	1.26824	-0.62291	0.631515	1.23552	-0.54051	0.795362	1.15619	-0.593283	0.765205	1.30633	-0.590313	1.08418	0.573959	-0.473749	0.969019	0.57143	-0.480724	0.860888	0.515014	-0.468703	1.00357	0.488847	-0.472241	1.05526	0.802276	-0.465824	1.12246	0.680435	-0.450606	0.963342	0.751271	-0.520814	1.03053	0.631612	-0.486644	0.769028	0.211225	-0.401096	0.884347	1.12555	-0.522389	0.852617	1.07235	-0.562801	0.903217	1.50341	-0.116095	0.731581	1.20998	0.00949972	0.721609	1.17693	-0.0766225	0.904478	1.17542	-0.023746	0.840841	1.28456	-0.0332	1.00742	1.1535	-0.0584523	0.995023	1.10833	-0.0349059	1.00349	1.42433	-0.319624	0.945852	0.986749	-0.180606	0.73734	1.05426	-0.248786	0.599486	0.0375161	-0.196889	0.536436	0.149505	-0.234649	0.457996	0.154651	-0.302481	0.804842	0.497528	-0.173081	0.689436	0.28806	-0.194378	0.70736	0.420349	-0.15405	0.627599	0.341987	-0.183568	0.764832	0.379224	-0.177446	0.923619	0.702947	-0.138673	0.895661	0.593014	-0.165388	0.846162	0.569243	-0.152841	0.812665	0.718297	-0.116979	0.792746	0.606787	-0.150096	0.653218	0.0479494	-0.254336
5	0.02	0.849212	1.54261	-0.305202	0.923176	0.996964	-0.455238	0.731275	1.05219	-0.35108	0.765444	0.221515	-0.468074	0.881447	1.51885	-0.498978	0.720864	0.375789	-0.434516	0.661872	0.400631	-0.379926	0.664437	1.27392	-0.621053	0.625983	1.24126	-0.53798	0.789473	1.16295	-0.592913	0.75929	1.31184	-0.589702	1.09084	0.582687	-0.474607	0.974016	0.572368	-0.480381	0.870074	0.508699	-0.468114	1.0142	0.492154	-0.473159	1.05779	0.811027	-0.466602	1.12721	0.690431	-0.451007	0.966763	0.758197	-0.521514	1.03605	0.639705	-0.487565	0.799596	0.199791	-0.400563	0.87949	1.13252	-0.523331	0.847459	1.07925	-0.56297	0.904411	1.50738	-0.116621	0.736359	1.21388	0.0117113	0.724864	1.18101	-0.074457	0.908879	1.18171	-0.0248198	0.844758	1.28876	-0.0330094	1.01131	1.16118	-0.061627	1.0002	1.11599	-0.0377302	1.00147	1.42836	-0.322415	0.947963	0.98846	-0.181192	0.73933	1.0571	-0.246888	0.573724	0.0392171	-0.196373	0.515559	0.156278	-0.23293	0.438536	0.165019	-0.301051	0.788838	0.502541	-0.172601	0.669852	0.294894	-0.192507	0.689494	0.427424	-0.153777	0.608646	0.349922	-0.183035	0.746446	0.385097	-0.176096	0.916151	0.703732	-0.140295	0.884067	0.595041	-0.164412	0.833786	0.572532	-0.154632	0.806129	0.72285	-0.116958	0.78184	0.61206	-0.149375	0.626917	0.0480844	-0.25384
6	0.025	0.8485	1.54657	-0.305404	0.922947	1.00254	-0.455564	0.732461	1.05577	-0.349801	0.794228	0.208359	-0.466916	0.877115	1.52318	-0.498812	0.739214	0.359428	-0.433308	0.679608	0.37994	-0.3783	0.658178	1.27964	-0.619116	0.620424	1.24722	-0.535285	0.783698	1.1698	-0.592531	0.753613	1.31739	-0.589053	1.09649	0.590547	-0.475516	0.978929	0.57227	-0.480122	0.879541	0.501601	-0.467394	1.02441	0.494747	-0.474244	1.06026	0.819162	-0.467551	1.13118	0.699634	-0.451578	0.969946	0.764831	-0.522347	1.04098	0.647385	-0.488579	0.830352	0.189363	-0.400003	0.874839	1.13961	-0.524247	0.842457	1.08627	-0.563167	0.905638	1.51141	-0.117304	0.740917	1.218	0.0138931	0.727931	1.18528	-0.0722438	0.91291	1.18824	-0.0258754	0.848507	1.29308	-0.0328942	1.01471	1.16893	-0.0648099	1.00481	1.12376	-0.0404958	0.999883	1.43261	-0.325059	0.950085	0.990378	-0.181885	0.741362	1.06006	-0.245513	0.548176	0.0410678	-0.195826	0.495849	0.163587	-0.23097	0.420431	0.175848	-0.299847	0.773275	0.508336	-0.17193	0.65105	0.302375	-0.190404	0.672036	0.434928	-0.153344	0.590455	0.35828	-0.182408	0.728629	0.391807	-0.174505	0.908994	0.705244	-0.141969	0.873	0.59805	-0.160819	0.82254	0.575955	-0.155725	0.800028	0.727644	-0.116862	0.771614	0.617694	-0.148668	0.600783	0.0483144	-0.253351
7	0.03	0.848028	1.55052	-0.30594	0.923262	1.00819	-0.455568	0.733355	1.05967	-0.348946	0.822567	0.195557	-0.465477	0.872959	1.52745	-0.49859	0.75854	0.342777	-0.432143	0.698247	0.359274	-0.376703	0.652088	1.28541	-0.617102	0.615454	1.253	-0.53273	0.777993	1.17671	-0.592151	0.748097	1.3229	-0.588332	1.10109	0.5975	-0.476634	0.983624	0.571124	-0.480259	0.88943	0.493722	-0.466855	1.0344	0.496634	-0.475379	1.06259	0.826675	-0.468707	1.13469	0.707962	-0.452328	0.972828	0.771253	-0.523285	1.04527	0.654551	-0.489654	0.861343	0.17992	-0.399111	0.870382	1.14673	-0.525039	0.83754	1.09323	-0.563426	0.906897	1.51534	-0.11827	0.745339	1.22233	0.0160979	0.730633	1.18972	-0.0701073	0.91661	1.19488	-0.0269893	0.852073	1.29746	-0.0327972	1.01775	1.17677	-0.0679201	1.00898	1.13156	-0.0431499	0.998722	1.43703	-0.327546	0.952025	0.992508	-0.182687	0.743408	1.0632	-0.244407	0.52289	0.0430755	-0.195318	0.47751	0.171189	-0.228623	0.403916	0.186876	-0.298359	0.758191	0.51492	-0.171381	0.632963	0.310402	-0.188173	0.654888	0.443036	-0.15262	0.573005	0.367089	-0.1818	0.71134	0.39919	-0.172727	0.902091	0.707172	-0.143776	0.86237	0.601712	-0.157831	0.812049	0.579818	-0.156851	0.794449	0.732651	-0.116531	0.762078	0.623635	-0.147902	0.574817	0.0484821	-0.253184
8	0.035	0.847922	1.55418	-0.306346	0.92668	1.01409	-0.455416	0.734143	1.06369	-0.348469	0.851662	0.183205	-0.464158	0.869037	1.53162	-0.498284	0.778763	0.326162	-0.431118	0.71799	0.338657	-0.375132	0.646062	1.29123	-0.615096	0.610792	1.25868	-0.530139	0.772438	1.18359	-0.591761	0.742683	1.32833	-0.587564	1.10463	0.60364	-0.477935	0.988225	0.569021	-0.48073	0.899593	0.485294	-0.466653	1.04397	0.497792	-0.476562	1.06485	0.833618	-0.470028	1.13785	0.715433	-0.453322	0.975379	0.777228	-0.523999	1.04879	0.661047	-0.490679	0.892369	0.170961	-0.398034	0.866252	1.15379	-0.525704	0.832803	1.10017	-0.563805	0.908249	1.51912	-0.119651	0.749546	1.22686	0.0182567	0.73298	1.19429	-0.0680149	0.920004	1.20163	-0.0281372	0.855449	1.30192	-0.0326816	1.02047	1.18462	-0.0709885	1.01278	1.13933	-0.0457673	0.997634	1.44145	-0.329908	0.953721	0.99488	-0.183483	0.745423	1.06647	-0.24344	0.497986	0.0453229	-0.194681	0.460687	0.178545	-0.225903	0.389149	0.197969	-0.296199	0.743708	0.522116	-0.171014	0.615555	0.318915	-0.185993	0.638165	0.45211	-0.151504	0.55635	0.376367	-0.181308	0.69466	0.407169	-0.170711	0.895478	0.709311	-0.145811	0.852359	0.605253	-0.16065	0.802019	0.584	-0.15902	0.789362	0.737785	-0.115983	0.753144	0.629806	-0.147266	0.549201	0.0487806	-0.253203
9	0.04	0.847418	1.55762	-0.306404	0.928599	1.01911	-0.455136	0.736258	1.06691	-0.347235	0.881285	0.171347	-0.463011	0.86536	1.53569	-0.497904	0.799533	0.309791	-0.430476	0.738812	0.31829	-0.373455	0.64023	1.29694	-0.613024	0.606196	1.26441	-0.527483	0.767092	1.19044	-0.591382	0.737413	1.33363	-0.586748	1.10733	0.608978	-0.479308	0.992662	0.565945	-0.481399	0.910058	0.47637	-0.466609	1.053	0.49824	-0.477858	1.06702	0.839844	-0.47147	1.14055	0.72201	-0.454658	0.977855	0.782215	-0.524065	1.05146	0.666732	-0.491583	0.923542	0.162621	-0.396918	0.862201	1.16052	-0.526411	0.828228	1.10696	-0.564193	0.909582	1.523	-0.121118	0.7534	1.23156	0.0203797	0.735092	1.19893	-0.0660064	0.92308	1.20839	-0.0292905	0.858649	1.30639	-0.0325974	1.02285	1.19235	-0.0740161	1.01613	1.14702	-0.0484883	0.996472	1.44579	-0.332184	0.955264	0.997538	-0.184233	0.747362	1.06964	-0.242494	0.473531	0.0480478	-0.194026	0.445304	0.185481	-0.222813	0.376006	0.209086	-0.294203	0.730161	0.529677	-0.170462	0.59921	0.327923	-0.18371	0.62236	0.461782	-0.150989	0.540534	0.385957	-0.181296	0.67881	0.415849	-0.16864	0.889163	0.711557	-0.147933	0.843084	0.608331	-0.168681	0.792372	0.588356	-0.162775	0.784635	0.743029	-0.115257	0.744729	0.636174	-0.146804	0.524341	0.0497366	-0.252823
